# xmcd CD database file
#
# Track frame offsets:
#	150
#	26953
#	50477
#	108339
#	142892
#	176399
#	198720
#	220754
#	236354
#	256228
#	277506
#	301401
#	320786
#
# Disc length: 4579 seconds
#
# Revision: 0
# Processed by: cddbd v1.5.2PL0 Copyright (c) Steve Scherf et al.
# Submitted via: CDex 1.51
#
DISCID=b411e10d
DTITLE=Eddie Davis - The complete cookbook sessions with Shirley Scott
DYEAR=1958
DGENRE=Jazz
TTITLE0=The chef
TTITLE1=Have horn will blow
TTITLE2=In the kitchen
TTITLE3=But beautiful
TTITLE4=But beautiful alt.
TTITLE5=Three deuces
TTITLE6=Tangerine
TTITLE7=Pots and pans
TTITLE8=Old devil moon
TTITLE9=I'll never be the same
TTITLE10=I let a song go out of my heart
TTITLE11=You stepped out of a dream
TTITLE12=It's a blue world
EXTD=YEAR: 1958
EXTT0=
EXTT1=
EXTT2=
EXTT3=
EXTT4=
EXTT5=
EXTT6=
EXTT7=
EXTT8=
EXTT9=
EXTT10=
EXTT11=
EXTT12=
PLAYORDER=
